<?xml version="1.0" encoding="UTF-8" standalone="no"?>
<!-- Created with Inkscape (http://www.inkscape.org/) -->

<svg
   version="1.1"
   id="svg1"
   width="499"
   height="125"
   viewBox="0 0 499 125"
   sodipodi:docname="about.svg"
   xml:space="preserve"
   inkscape:version="1.4 (86a8ad7, 2024-10-11)"
   xmlns:inkscape="http://www.inkscape.org/namespaces/inkscape"
   xmlns:sodipodi="http://sodipodi.sourceforge.net/DTD/sodipodi-0.dtd"
   xmlns:xlink="http://www.w3.org/1999/xlink"
   xmlns="http://www.w3.org/2000/svg"
   xmlns:svg="http://www.w3.org/2000/svg"><defs
     id="defs1"><linearGradient
       id="linearGradient1"
       inkscape:swatch="gradient"><stop
         style="stop-color:#ffffff;stop-opacity:1;"
         offset="0"
         id="stop1" /><stop
         style="stop-color:#ffffff;stop-opacity:0;"
         offset="1"
         id="stop2" /></linearGradient><linearGradient
       id="swatch19"
       inkscape:swatch="solid"><stop
         style="stop-color:#001c3c;stop-opacity:1;"
         offset="0"
         id="stop20" /></linearGradient><linearGradient
       inkscape:collect="always"
       xlink:href="#linearGradient1"
       id="linearGradient3"
       gradientUnits="userSpaceOnUse"
       x1="-1355.0368"
       y1="-591.36157"
       x2="101.49682"
       y2="-591.36157" /></defs><sodipodi:namedview
     id="namedview1"
     pagecolor="#ffffff"
     bordercolor="#111111"
     borderopacity="1"
     inkscape:showpageshadow="0"
     inkscape:pageopacity="0"
     inkscape:pagecheckerboard="1"
     inkscape:deskcolor="#d1d1d1"
     inkscape:zoom="2.0375"
     inkscape:cx="269.20245"
     inkscape:cy="65.521472"
     inkscape:window-width="1920"
     inkscape:window-height="1017"
     inkscape:window-x="-8"
     inkscape:window-y="-8"
     inkscape:window-maximized="1"
     inkscape:current-layer="svg1"
     showgrid="false"><inkscape:grid
       id="grid26"
       units="px"
       originx="0"
       originy="0"
       spacingx="1"
       spacingy="1"
       empcolor="#0099e5"
       empopacity="0.30196078"
       color="#0099e5"
       opacity="0.14901961"
       empspacing="5"
       enabled="true"
       visible="false" /></sodipodi:namedview><g
     inkscape:groupmode="layer"
     inkscape:label="Image"
     id="g1"
     style="display:inline" /><g
     id="g26"
     transform="matrix(0.17740781,0,0,0.1852448,431.15583,171.65278)"
     style="display:inline;stroke:#ffffff;stroke-opacity:1;stroke-width:8.16950378;stroke-dasharray:none"
     inkscape:label="Agrupamento geral"><g
       id="g12"
       transform="translate(-707.9744,-130.4894)"
       inkscape:label="agrupamento slogan"
       style="display:inline;stroke:#ffffff;stroke-width:8.16950378;stroke-dasharray:none;stroke-opacity:1"><path
         style="fill:#69b0e0;fill-opacity:1;stroke:#ffffff;stroke-width:8.16950378;stroke-dasharray:none;stroke-opacity:1"
         d="m -1157.691,-138.36405 0.3757,-636.84077 -8.2651,1.4716 -5.2597,3.67904 -4.884,5.15064 -1.5027,3.31114 -0.7514,3.31112 -0.3757,1.83953 -0.3756,6.25435 v 4.04693 l -24.4198,-22.44208 -5.6353,-4.41485 -2.6297,-1.10371 -3.3811,-1.10371 h -4.1327 l -4.8839,1.10371 -5.2597,2.57532 -3.0055,2.57532 -2.2541,2.20742 -2.2542,2.57533 -1.5028,3.31113 -1.5027,5.51856 v 2.94321 l 0.7514,4.04695 0.7513,2.57532 5.2598,5.88645 54.4746,54.44971 v 36.42244 l -21.0384,-21.3384 -9.0166,-6.62227 -6.0109,-1.8395 h -7.8894 l -4.884,1.8395 -4.1326,2.20742 -3.3812,3.67903 -2.6298,4.04695 -1.8785,5.51855 v 3.67903 4.41484 l 1.8785,3.67903 58.9829,59.96826 0.3757,83.14616 -65.7453,-64.751 -0.063,-80.32143 -1.3282,-4.16235 -1.8596,-4.42248 -5.0474,-4.42251 -4.7817,-2.60148 -4.7817,-1.30075 h -4.7818 l -7.1726,1.04061 -4.5161,2.60147 -4.2503,3.64204 -2.391,4.94281 -0.7968,6.76381 -0.5314,7.54426 -0.7968,7.80442 0.2656,9.62545 -0.2656,6.50366 -0.2658,3.64206 -68.2159,-66.1469 -8.0774,-5.51855 -3.9446,-1.4716 -4.3204,-0.18396 -5.0718,1.10372 -4.1326,1.4716 -2.442,2.02347 -3.0161,2.70993 -2.0587,2.60147 -1.129,2.14621 -1.0626,1.88606 -0.5314,1.62592 -0.4647,2.08119 -0.1994,2.08116 -0.2655,2.47141 v 2.14621 l 0.4649,2.27627 0.6641,1.56088 0.7968,1.43082 0.8634,1.49585 9.2314,10.2758 62.7602,62.24016 -37.4569,0.91051 -1.3282,0.13014 -3.4535,0.65035 -2.9222,1.04059 -2.258,1.43081 -2.1253,2.08118 -1.9923,2.21124 -1.594,2.34132 -1.0626,1.82104 -0.9297,2.60148 -0.3985,2.86161 -0.1332,2.86162 v 2.4714 l 0.3984,2.34131 1.0626,3.3819 1.3283,2.86162 2.1251,2.99169 2.5238,2.34132 2.6564,2.08119 3.5863,1.82102 5.9772,1.0406 79.2968,0.39021 65.3503,63.73602 -83.9458,0.13013 -54.7242,-53.06998 -6.1099,-4.55258 -2.7894,-1.4308 -3.9846,-1.17067 -7.0398,0.65037 -3.5864,1.43082 -4.3833,2.73153 -3.4534,3.38191 -1.8594,2.73154 -1.9925,3.77214 -0.7969,3.51198 -0.2658,2.86162 0.1332,3.38191 0.9298,3.38192 0.9298,2.47138 1.4611,2.21124 26.4322,27.57559 -36.6598,0.13014 -51.5364,-50.46852 -5.1802,-4.55257 -6.2428,-3.77212 -3.5863,-1.04059 -4.2503,-0.26015 -6.2429,1.30074 -4.516,2.47139 -4.6489,4.68263 -1.5939,2.34133 -1.8596,3.512 -0.5313,2.34131 -0.6641,2.60147 -0.2657,3.9022 0.5313,3.38191 1.5939,3.38192 27.7606,29.78682 -11.5558,0.91051 -7.4383,2.21126 -4.2505,3.12177 -3.1877,3.38191 -1.8596,4.55256 -1.0626,4.16236 -0.3984,5.46309 0.7969,3.77213 1.5939,3.77213 2.1252,3.12177 3.3207,3.38191 3.8518,2.08117 4.1176,1.82103 4.3834,0.65037 7.0396,0.26015 2.3911,0.26013 -24.1744,24.71397 -4.1176,5.59317 -0.9298,3.38191 -0.5313,3.51197 -0.133,3.25184 0.6641,2.9917 1.461,4.16235 2.3909,4.03229 3.719,3.90219 2.1253,1.0406 3.4535,1.43079 3.5863,1.0406 5.5785,0.26014 3.9849,-0.13012 3.0549,-1.04058 1.9925,-1.04061 43.3011,-41.2333 15.9391,-15.99904 h 36.2614 l -23.643,24.06359 -2.3909,2.9917 -2.125,3.12177 -0.7971,1.9511 -0.7969,2.9917 v 2.99169 l 0.3984,3.77213 1.0626,4.81272 2.3909,4.29243 2.9222,3.51198 5.5786,3.51199 7.7039,1.56087 6.9069,-0.52029 3.5863,-0.91051 40.3791,-38.11153 5.5786,-5.59317 5.0474,-5.07286 5.5786,-5.46309 3.9848,-3.90222 83.9459,-0.13012 -64.819,63.86608 -74.1166,0.65037 -6.907,-0.13013 -4.7818,0.78044 -2.7894,0.91052 -2.3908,1.69095 -3.3205,3.25184 -2.2581,3.38191 -1.594,4.16235 -0.2655,1.82103 -0.3986,2.08118 v 3.25183 l 0.1332,2.60148 0.2656,3.25183 0.7971,2.4714 1.8594,2.86162 2.3909,2.86161 2.3908,1.9511 3.9849,2.60147 4.2504,1.30074 10.626,0.26015 h 8.3681 l 8.8992,0.26014 h 6.2429 l 5.3128,-0.13011 -73.4524,73.36143 -1.0626,1.82103 -0.2656,1.82104 -0.5314,1.69095 -0.2656,3.38191 v 1.9511 l 0.3984,2.86162 0.6642,2.21124 0.5312,2.73156 0.6643,1.30073 1.1954,1.9511 1.5938,1.9511 1.7267,1.9511 2.6567,1.30074 2.2578,1.30073 2.3909,1.17067 4.3834,0.78044 2.258,0.26015 h 4.1176 l 5.0474,-1.04059 8.6337,-7.54426 67.3426,-65.16683 0.1332,33.42888 0.7969,5.33303 1.1955,3.38191 2.1253,4.16235 1.5937,1.69095 4.9147,3.64206 7.5711,2.73154 4.1176,0.26016 h 3.9846 l 3.3207,-1.17066 4.5162,-2.34133 3.3205,-2.73156 3.4535,-5.07286 0.9296,-3.77213 0.5314,-2.34133 0.7971,-79.73504 64.9517,-63.60594 -0.052,82.61105 -53.3477,52.2423 -3.9447,4.59878 -2.0664,2.57533 -0.3756,1.93149 -0.4696,1.37963 -0.2818,1.9315 -0.1879,2.57533 -0.1878,2.85124 0.4697,2.75928 0.1878,1.93148 0.5636,1.37965 0.7513,2.02346 1.221,2.02349 3.0995,3.0352 1.6906,0.91974 2.9115,1.83953 3.8507,1.56358 6.1051,1.01175 5.6353,-0.0921 2.348,-0.64383 2.442,-1.10372 29.3975,-26.76497 0.1879,35.31874 -58.1928,58.12032 -1.129,1.88606 -0.5977,1.82102 -0.3321,1.56089 v 1.17066 l -0.1332,1.30074 -0.1992,2.34132 v 1.88606 l 0.2657,1.69095 0.332,1.88608 0.7306,2.4714 0.797,2.34132 1.9923,2.66651 3.1879,3.25184 2.922,1.69095 2.1917,1.23571 2.9223,0.84547 4.184,0.78044 4.5824,0.13014 3.3871,-0.32519 2.5236,-1.2357 1.7268,-1.30074 1.8596,-1.36576 2.0588,-1.62592 1.5938,-1.30074 0.9962,-0.97555 22.2484,-21.00688 0.4648,10.99121 0.9963,3.25183 0.6641,2.66652 1.0626,2.08117 1.7932,2.2763 3.0549,3.12176 2.9221,1.88606 2.0588,1.17067 2.1252,0.78044 2.4573,0.78044 z"
         id="path8" /><path
         style="fill:#001b39;fill-opacity:1;stroke:#ffffff;stroke-width:8.16950378;stroke-dasharray:none;stroke-opacity:1"
         d="m -1132.161,-773.15628 -2.1537,137.53948 48.0981,-91.97952 -11.486,-53.29655 z"
         id="path9"
         sodipodi:nodetypes="ccccc" /><path
         style="fill:#001b39;fill-opacity:1;stroke:#ffffff;stroke-width:8.16950378;stroke-dasharray:none;stroke-opacity:1"
         d="m -979.0567,-600.90895 82.04598,-115.27547 60.43537,58.44571 -56.9155,78.48386 -1.3882,3.38292 14.4682,33.39763 14.6837,37.64379 109.66656,18.94437 v 71.04142 l -110.36066,12.85512 -30.5401,65.62873 55.5274,84.57311 -50.6688,48.71411 -86.7616,-54.80337 -74.96195,28.41657 -27.0696,90.66237 -52.0569,-3.38293 0.6941,-129.90429 27.0696,2.02975 25.6814,-3.38293 24.9873,-6.76585 31.2342,-10.14876 21.5169,-10.82536 18.04635,-12.85512 20.8228,-20.97413 22.9051,-27.06339 10.4114,-17.59122 11.7996,-29.09315 6.2468,-29.09315 2.0823,-17.5912 -1.3882,-18.26779 -2.7764,-18.94438 -6.9409,-18.26779 -13.18779,-27.0459 -13.18769,-18.26779 -20.12874,-15.54394 15.26995,-26.02538 -11.96576,-11.24352 z"
         id="path10"
         sodipodi:nodetypes="ccccccccccccccccccccccccccccccccccccccc" /><path
         style="fill:#001b39;fill-opacity:1;stroke:#ffffff;stroke-width:8.16950378;stroke-dasharray:none;stroke-opacity:1"
         d="m -968.83199,-548.00183 6.18021,-6.3133 12.21739,17.94221 7.48203,13.32712 5.43612,12.12989 3.26488,8.71247 5.60032,20.49806 1.71543,32.44904 -1.32894,21.51667 -2.2975,10.41536 -6.48326,20.3167 -6.86082,13.8269 -12.5121,19.62832 -10.13056,13.31169 -9.39939,11.43378 -20.74492,17.05948 -16.9972,11.42714 -29.6684,14.49001 -27.2799,7.83182 -23.9212,4.24846 -14.6702,-0.35442 -14.3281,-0.18333 -9.1628,0.50431 0.3684,-9.05083 27.1061,0.1945 28.558,-3.04894 15.4712,-4.76819 19.8327,-6.8137 18.3266,-9.03509 10.4972,-6.30953 15.9645,-11.59882 10.56742,-9.55423 10.2589,-11.26224 8.17594,-10.75177 9.63838,-14.50754 8.62452,-15.53313 4.39913,-11.77971 5.93933,-19.12175 1.45638,-11.44074 0.44589,-12.63708 0.0983,-20.49309 -0.67872,-8.53941 -3.02957,-11.61546 -3.74603,-10.42064 -5.61234,-11.95926 -4.78949,-10.08002 -5.33362,-8.88505 -3.99634,-6.83455 -4.21328,-4.78543 -1.86273,-1.70941 z"
         id="path12"
         sodipodi:nodetypes="ccccccccccccccccccccccccccccccccccccccccccccccccccc" /><path
         style="display:inline;fill:#feb800;fill-opacity:1;stroke:#ffffff;stroke-width:8.16950378;stroke-dasharray:none;stroke-opacity:1"
         d="m -1294.7927,-160.31325 180.1921,-198.79411 -57.7712,38.95546 208.15809,-276.87377 -56.13439,36.84803 101.71629,-161.96793 -56.2799,-21.1385 -55.50359,-20.84681 -151.3601,254.5863 83.3834,-54.21831 -85.014,131.6038 67.8799,-60.8283 z"
         id="path1"
         sodipodi:nodetypes="ccccccccccccc" /></g><text
       xml:space="preserve"
       style="font-style:normal;font-variant:normal;font-weight:normal;font-stretch:normal;font-size:356.879px;line-height:0;font-family:Jokerman;-inkscape-font-specification:Jokerman;text-align:start;letter-spacing:-20px;writing-mode:lr-tb;direction:ltr;text-anchor:start;display:none;mix-blend-mode:darken;fill:#001b39;fill-opacity:1;stroke:#ffffff;stroke-width:8.16950375;stroke-linecap:butt;stroke-dasharray:none;stroke-opacity:1;paint-order:markers fill stroke"
       x="-1378.0923"
       y="-463.63095"
       id="text12"
       transform="scale(1.0374154,0.96393403)"
       inkscape:label="Titulo nome"><tspan
         sodipodi:role="line"
         id="tspan12"
         x="-1378.0923"
         y="-463.63095"
         style="font-style:normal;font-variant:normal;font-weight:900;font-stretch:normal;line-height:0;font-family:Arial;-inkscape-font-specification:'Arial Heavy';letter-spacing:-20px;direction:ltr;fill:#001b39;fill-opacity:1;stroke:#ffffff;stroke-width:8.16950375;stroke-linecap:butt;stroke-dasharray:none;stroke-opacity:1;paint-order:markers fill stroke">BETHEL</tspan></text></g></svg>
