<?xml version="1.0" encoding="UTF-8" standalone="no"?>
<!-- Created with Inkscape (http://www.inkscape.org/) -->

<svg
   version="1.1"
   id="svg1"
   width="499"
   height="125"
   viewBox="0 0 499 125"
   xmlns="http://www.w3.org/2000/svg"
   xmlns:svg="http://www.w3.org/2000/svg">
  <defs
     id="defs1" />
  <g
     id="g1">
    <g
       id="g2"
       transform="translate(-4.2477478,1.1238666)">
      <path
         style="fill:#fee3c7"
         d="M 37.437091,93.75 34.5,90.5 37.75,93.437091 C 40.779455,96.174872 41.459652,97 40.687091,97 c -0.1721,0 -1.6346,-1.4625 -3.25,-3.25 z M 99,96.687091 c 0,-0.1721 1.4625,-1.6346 3.25,-3.25 L 105.5,90.5 102.56291,93.75 C 99.825128,96.779455 99,97.459652 99,96.687091 Z M 71.924314,84.25 69.5,81.5 l 2.75,2.424314 c 1.5125,1.333373 2.75,2.570873 2.75,2.75 0,0.784274 -0.809799,0.145975 -3.075686,-2.424314 z M 150.42476,62 c 0,-11.825 0.14466,-16.6625 0.32145,-10.75 0.1768,5.9125 0.1768,15.5875 0,21.5 -0.17679,5.9125 -0.32145,1.075 -0.32145,-10.75 z m 112.8749,16 c 0,-3.025 0.18747,-4.2625 0.41659,-2.75 0.22913,1.5125 0.22913,3.9875 0,5.5 -0.22912,1.5125 -0.41659,0.275 -0.41659,-2.75 z m 176,0 c 0,-3.025 0.18747,-4.2625 0.41659,-2.75 0.22913,1.5125 0.22913,3.9875 0,5.5 -0.22912,1.5125 -0.41659,0.275 -0.41659,-2.75 z M 50.437091,78.75 47.5,75.5 50.75,78.437091 C 53.779455,81.174872 54.459652,82 53.687091,82 c -0.1721,0 -1.6346,-1.4625 -3.25,-3.25 z M 88.5,78 c 0.995486,-1.1 2.034975,-2 2.309975,-2 0.275,0 -0.314489,0.9 -1.309975,2 -0.995486,1.1 -2.034975,2 -2.309975,2 -0.275,0 0.314489,-0.9 1.309975,-2 z M 289.39994,65.5 c 10e-4,-8.25 0.15629,-11.491932 0.34419,-7.204294 0.1879,4.287638 0.18676,11.037638 -0.003,15 C 289.55228,77.258068 289.39854,73.75 289.39994,65.5 Z m 45.93627,7.5 c 0,-4.125 0.17651,-5.8125 0.39226,-3.75 0.21574,2.0625 0.21574,5.4375 0,7.5 -0.21575,2.0625 -0.39226,0.375 -0.39226,-3.75 z m 37,0 c 0,-4.125 0.17651,-5.8125 0.39226,-3.75 0.21574,2.0625 0.21574,5.4375 0,7.5 -0.21575,2.0625 -0.39226,0.375 -0.39226,-3.75 z m -135.53873,3.255245 c 4.56362,-0.185715 11.76362,-0.18468 16,0.0023 4.23639,0.186981 0.50252,0.33893 -8.29748,0.337664 -8.8,-0.0013 -12.26613,-0.15425 -7.70252,-0.339964 z m 176,0 c 4.56362,-0.185715 11.76362,-0.18468 16,0.0023 4.23639,0.186981 0.50252,0.33893 -8.29748,0.337664 -8.8,-0.0013 -12.26613,-0.15425 -7.70252,-0.339964 z M 171.25,73.25845 c 3.7125,-0.192407 9.7875,-0.192407 13.5,0 3.7125,0.192406 0.675,0.349829 -6.75,0.349829 -7.425,0 -10.4625,-0.157423 -6.75,-0.349829 z M 225.25218,69.5 c 0.0111,-2.2 0.21589,-2.982253 0.45508,-1.738341 0.23919,1.243913 0.23011,3.043913 -0.0202,4 -0.25029,0.956088 -0.446,-0.06166 -0.4349,-2.261659 z m 176,0 c 0.0111,-2.2 0.21589,-2.982253 0.45508,-1.738341 0.23919,1.243913 0.23011,3.043913 -0.0202,4 C 401.43679,72.717747 401.24108,71.7 401.25218,69.5 Z M 456,59.060365 V 45.120731 l -3.75,-0.392263 -3.75,-0.392262 4.25,-0.168103 L 457,44 v 14.5 c 0,7.975 -0.225,14.5 -0.5,14.5 -0.275,0 -0.5,-6.272836 -0.5,-13.939635 z m 11.79748,13.19488 c 4.56362,-0.185715 11.76362,-0.18468 16,0.0023 4.23639,0.186981 0.50252,0.33893 -8.29748,0.337664 -8.8,-0.0013 -12.26613,-0.15425 -7.70252,-0.339964 z M 101.07895,63.416667 c 0.048,-1.164943 0.28494,-1.4019 0.60416,-0.604167 0.28887,0.721875 0.25335,1.584375 -0.0789,1.916667 -0.3323,0.332291 -0.56864,-0.258334 -0.52522,-1.3125 z M 53.404988,60.75 51.5,58.5 53.75,60.404988 C 55.864445,62.195206 56.455241,63 55.654988,63 c -0.189757,0 -1.202257,-1.0125 -2.25,-2.25 z M 171.25,62.25845 c 3.7125,-0.192407 9.7875,-0.192407 13.5,0 3.7125,0.192406 0.675,0.349829 -6.75,0.349829 -7.425,0 -10.4625,-0.157423 -6.75,-0.349829 z m 86.82895,-0.841783 c 0.048,-1.164943 0.28494,-1.4019 0.60416,-0.604167 0.28887,0.721875 0.25335,1.584375 -0.0789,1.916667 -0.33229,0.332291 -0.56864,-0.258334 -0.52522,-1.3125 z m 176,0 c 0.048,-1.164943 0.28494,-1.4019 0.60416,-0.604167 0.28887,0.721875 0.25335,1.584375 -0.0789,1.916667 -0.33229,0.332291 -0.56864,-0.258334 -0.52522,-1.3125 z M 170.75,56.259603 c 3.4375,-0.195271 9.0625,-0.195271 12.5,0 3.4375,0.195271 0.625,0.355038 -6.25,0.355038 -6.875,0 -9.6875,-0.159767 -6.25,-0.355038 z M 225.232,54 c 0,-1.925 0.2058,-2.7125 0.45733,-1.75 0.25152,0.9625 0.25152,2.5375 0,3.5 C 225.4378,56.7125 225.232,55.925 225.232,54 Z m 12.0671,2.254716 c 4.83951,-0.183708 12.48951,-0.182767 17,0.0021 4.5105,0.184857 0.5509,0.335163 -8.7991,0.334013 -9.35,-0.0011 -13.0404,-0.152396 -8.2009,-0.336103 z M 335,51.060365 v -5.939634 l -3.75,-0.392263 -3.75,-0.392262 4.25,-0.168103 L 336,44 v 6.5 c 0,3.575 -0.225,6.5 -0.5,6.5 -0.275,0 -0.5,-2.672836 -0.5,-5.939635 z M 372.19268,50.75 372,44 l 4.25,0.168103 4.25,0.168103 -3.70378,0.389507 -3.70378,0.389506 L 372.7389,51.30761 372.38536,57.5 Z M 401.232,54 c 0,-1.925 0.2058,-2.7125 0.45733,-1.75 0.25152,0.9625 0.25152,2.5375 0,3.5 C 401.4378,56.7125 401.232,55.925 401.232,54 Z m 12.0671,2.254716 c 4.83951,-0.183708 12.48951,-0.182767 17,0.0021 4.5105,0.184857 0.5509,0.335163 -8.7991,0.334013 -9.35,-0.0011 -13.0404,-0.152396 -8.2009,-0.336103 z M 206.15789,51 c 0,-1.375 0.22698,-1.9375 0.50439,-1.25 0.27741,0.6875 0.27741,1.8125 0,2.5 -0.27741,0.6875 -0.50439,0.125 -0.50439,-1.25 z m 65.62563,0.261596 c 2.90594,-0.202642 7.40594,-0.200512 10,0.0047 2.59406,0.205245 0.21648,0.371043 -5.28352,0.368439 -5.5,-0.0026 -7.62242,-0.170532 -4.71648,-0.373173 z m 38.66313,0.01013 9.4513,-0.342918 0.38792,-4.97006 0.38792,-4.97006 -0.0869,5.255657 L 320.5,51.5 l -9.75232,0.05732 -9.75233,0.05732 z M 236.25,47.256692 c 4.2625,-0.187451 11.2375,-0.187451 15.5,0 4.2625,0.187451 0.775,0.34082 -7.75,0.34082 -8.525,0 -12.0125,-0.153369 -7.75,-0.34082 z m 176,0 c 4.2625,-0.187451 11.2375,-0.187451 15.5,0 4.2625,0.187451 0.775,0.34082 -7.75,0.34082 -8.525,0 -12.0125,-0.153369 -7.75,-0.34082 z m -248.5,-3.002573 c 5.6375,-0.178247 14.8625,-0.178247 20.5,0 5.6375,0.178248 1.025,0.324086 -10.25,0.324086 -11.275,0 -15.8875,-0.145838 -10.25,-0.324086 z m 64.55435,-8.84e-4 c 5.94239,-0.1771 15.39239,-0.176433 21,0.0015 5.60761,0.177917 0.74565,0.322817 -10.80435,0.322001 -11.55,-8.16e-4 -16.13804,-0.146385 -10.19565,-0.323486 z m 53.503,-6.96e-4 c 6.76904,-0.173259 17.56904,-0.172724 24,0.0012 6.43096,0.173914 0.89265,0.315672 -12.30735,0.315018 -13.2,-6.54e-4 -18.46169,-0.142947 -11.69265,-0.316207 z m 122.497,6.96e-4 c 5.94239,-0.1771 15.39239,-0.176433 21,0.0015 5.60761,0.177917 0.74565,0.322817 -10.80435,0.322001 -11.55,-8.16e-4 -16.13804,-0.146385 -10.19565,-0.323486 z M 87.924314,41.25 85.5,38.5 88.25,40.924314 C 90.820289,43.190201 91.458588,44 90.674314,44 c -0.179127,0 -1.416627,-1.2375 -2.75,-2.75 z M 50.5,41 c 0.995486,-1.1 2.034975,-2 2.309975,-2 0.275,0 -0.314489,0.9 -1.309975,2 -0.995486,1.1 -2.034975,2 -2.309975,2 -0.275,0 0.314489,-0.9 1.309975,-2 z M 69.872445,35.25 C 68.628574,33.663944 68.663944,33.628574 70.25,34.872445 71.915748,36.178814 72.445479,37 71.622445,37 c -0.207656,0 -0.995156,-0.7875 -1.75,-1.75 z"
         id="path8" />
      <path
         style="fill:#fed0a7"
         d="m 58.320074,105 c 0,-3.575 0.181495,-5.0375 0.403322,-3.25 0.221826,1.7875 0.221826,4.7125 0,6.5 -0.221827,1.7875 -0.403322,0.325 -0.403322,-3.25 z m 23,0 c 0,-3.575 0.181495,-5.0375 0.403322,-3.25 0.221826,1.7875 0.221826,4.7125 0,6.5 -0.221827,1.7875 -0.403322,0.325 -0.403322,-3.25 z M 29.25,108.25543 c 4.8125,-0.18331 12.6875,-0.18331 17.5,0 4.8125,0.18332 0.875,0.3333 -8.75,0.3333 -9.625,0 -13.5625,-0.14998 -8.75,-0.3333 z m 72.43583,-0.004 17.18583,-0.29856 0.41434,-2.72666 c 0.3813,-2.50923 0.42628,-2.4675 0.56417,0.52334 L 120,109 102.25,108.77522 84.5,108.55044 Z M 214.42476,62 c 0,-11.825 0.14466,-16.6625 0.32145,-10.75 0.1768,5.9125 0.1768,15.5875 0,21.5 -0.17679,5.9125 -0.32145,1.075 -0.32145,-10.75 z m 85.98003,5.5 c 0.001,-8.8 0.15425,-12.266133 0.33996,-7.702518 0.18572,4.563614 0.18468,11.763614 -0.002,16 C 300.55547,80.033867 300.40352,76.3 300.40479,67.5 Z M 324.42476,62 c 0,-11.825 0.14466,-16.6625 0.32145,-10.75 0.1768,5.9125 0.1768,15.5875 0,21.5 -0.17679,5.9125 -0.32145,1.075 -0.32145,-10.75 z m 59,0 c 0,-11.825 0.14466,-16.6625 0.32145,-10.75 0.1768,5.9125 0.1768,15.5875 0,21.5 -0.17679,5.9125 -0.32145,1.075 -0.32145,-10.75 z m 7,0 c 0,-11.825 0.14466,-16.6625 0.32145,-10.75 0.1768,5.9125 0.1768,15.5875 0,21.5 -0.17679,5.9125 -0.32145,1.075 -0.32145,-10.75 z m 55,0 c 0,-11.825 0.14466,-16.6625 0.32145,-10.75 0.1768,5.9125 0.1768,15.5875 0,21.5 -0.17679,5.9125 -0.32145,1.075 -0.32145,-10.75 z m 45.8749,16 c 0,-3.025 0.18747,-4.2625 0.41659,-2.75 0.22913,1.5125 0.22913,3.9875 0,5.5 -0.22912,1.5125 -0.41659,0.275 -0.41659,-2.75 z M 237.2991,66.254716 c 4.83951,-0.183708 12.48951,-0.182767 17,0.0021 4.5105,0.184857 0.5509,0.335163 -8.7991,0.334013 -9.35,-0.0011 -13.0404,-0.152396 -8.2009,-0.336103 z m 108.9509,0.002 c 4.2625,-0.187451 11.2375,-0.187451 15.5,0 4.2625,0.187451 0.775,0.34082 -7.75,0.34082 -8.525,0 -12.0125,-0.153369 -7.75,-0.34082 z m 67.0491,-0.002 c 4.83951,-0.183708 12.48951,-0.182767 17,0.0021 4.5105,0.184857 0.5509,0.335163 -8.7991,0.334013 -9.35,-0.0011 -13.0404,-0.152396 -8.2009,-0.336103 z M 26.252183,58.5 c 0.0111,-2.2 0.215885,-2.982253 0.455078,-1.738341 0.239193,1.243913 0.230112,3.043913 -0.02018,4 C 26.436788,61.717747 26.241084,60.7 26.252183,58.5 Z m 86.999997,0 c 0.0111,-2.2 0.21589,-2.982253 0.45508,-1.738341 0.23919,1.243913 0.23011,3.043913 -0.0202,4 C 113.43679,61.717747 113.24108,60.7 113.25218,58.5 Z M 346.25,56.256692 c 4.2625,-0.187451 11.2375,-0.187451 15.5,0 4.2625,0.187451 0.775,0.34082 -7.75,0.34082 -8.525,0 -12.0125,-0.153369 -7.75,-0.34082 z M 262.29966,46 c 0,-3.025 0.18747,-4.2625 0.41659,-2.75 0.22913,1.5125 0.22913,3.9875 0,5.5 -0.22912,1.5125 -0.41659,0.275 -0.41659,-2.75 z m 4,0 c 0,-3.025 0.18747,-4.2625 0.41659,-2.75 0.22913,1.5125 0.22913,3.9875 0,5.5 -0.22912,1.5125 -0.41659,0.275 -0.41659,-2.75 z m 172,0 c 0,-3.025 0.18747,-4.2625 0.41659,-2.75 0.22913,1.5125 0.22913,3.9875 0,5.5 -0.22912,1.5125 -0.41659,0.275 -0.41659,-2.75 z M 45.5,30 c 0.995486,-1.1 2.034975,-2 2.309975,-2 0.275,0 -0.314489,0.9 -1.309975,2 -0.995486,1.1 -2.034975,2 -2.309975,2 -0.275,0 0.314489,-0.9 1.309975,-2 z M 93.404988,29.75 91.5,27.5 93.75,29.404988 C 95.864445,31.195206 96.455241,32 95.654988,32 c -0.189757,0 -1.202257,-1.0125 -2.25,-2.25 z M 68.25,23.310674 c 0.9625,-0.251527 2.5375,-0.251527 3.5,0 0.9625,0.251528 0.175,0.457323 -1.75,0.457323 -1.925,0 -2.7125,-0.205795 -1.75,-0.457323 z"
         id="path7" />
      <path
         style="fill:#fec17d"
         d="M 49.404988,95.75 47.5,93.5 49.75,95.404988 C 51.864445,97.195206 52.455241,98 51.654988,98 c -0.189757,0 -1.202257,-1.0125 -2.25,-2.25 z M 89.5,96 c 0.995486,-1.1 2.034975,-2 2.309975,-2 0.275,0 -0.314489,0.9 -1.309975,2 -0.995486,1.1 -2.034975,2 -2.309975,2 -0.275,0 0.314489,-0.9 1.309975,-2 z M 217.41508,62 c 0,-10.175 0.1485,-14.3375 0.32999,-9.25 0.18149,5.0875 0.18149,13.4125 0,18.5 -0.18149,5.0875 -0.32999,0.925 -0.32999,-9.25 z m 79.98231,4 c 0,-7.975 0.1553,-11.2375 0.34512,-7.25 0.18981,3.9875 0.18981,10.5125 0,14.5 -0.18982,3.9875 -0.34512,0.725 -0.34512,-7.25 z m 30.01769,-4 c 0,-10.175 0.1485,-14.3375 0.32999,-9.25 0.18149,5.0875 0.18149,13.4125 0,18.5 -0.18149,5.0875 -0.32999,0.925 -0.32999,-9.25 z m 53,0 c 0,-10.175 0.1485,-14.3375 0.32999,-9.25 0.18149,5.0875 0.18149,13.4125 0,18.5 -0.18149,5.0875 -0.32999,0.925 -0.32999,-9.25 z m 13,0 c 0,-10.175 0.1485,-14.3375 0.32999,-9.25 0.18149,5.0875 0.18149,13.4125 0,18.5 -0.18149,5.0875 -0.32999,0.925 -0.32999,-9.25 z m 55,0 c 0,-10.175 0.1485,-14.3375 0.32999,-9.25 0.18149,5.0875 0.18149,13.4125 0,18.5 -0.18149,5.0875 -0.32999,0.925 -0.32999,-9.25 z m 39.74281,16 c 0,-1.375 0.22698,-1.9375 0.50439,-1.25 0.27741,0.6875 0.27741,1.8125 0,2.5 -0.27741,0.6875 -0.50439,0.125 -0.50439,-1.25 z M 236.25,63.256692 c 4.2625,-0.187451 11.2375,-0.187451 15.5,0 4.2625,0.187451 0.775,0.34082 -7.75,0.34082 -8.525,0 -12.0125,-0.153369 -7.75,-0.34082 z m 110,0 c 4.2625,-0.187451 11.2375,-0.187451 15.5,0 4.2625,0.187451 0.775,0.34082 -7.75,0.34082 -8.525,0 -12.0125,-0.153369 -7.75,-0.34082 z m 66,0 c 4.2625,-0.187451 11.2375,-0.187451 15.5,0 4.2625,0.187451 0.775,0.34082 -7.75,0.34082 -8.525,0 -12.0125,-0.153369 -7.75,-0.34082 z m -66,-4 c 4.2625,-0.187451 11.2375,-0.187451 15.5,0 4.2625,0.187451 0.775,0.34082 -7.75,0.34082 -8.525,0 -12.0125,-0.153369 -7.75,-0.34082 z M 259.15789,46 c 0,-1.375 0.22698,-1.9375 0.50439,-1.25 0.27741,0.6875 0.27741,1.8125 0,2.5 -0.27741,0.6875 -0.50439,0.125 -0.50439,-1.25 z m 10,0 c 0,-1.375 0.22698,-1.9375 0.50439,-1.25 0.27741,0.6875 0.27741,1.8125 0,2.5 -0.27741,0.6875 -0.50439,0.125 -0.50439,-1.25 z m 166,0 c 0,-1.375 0.22698,-1.9375 0.50439,-1.25 0.27741,0.6875 0.27741,1.8125 0,2.5 -0.27741,0.6875 -0.50439,0.125 -0.50439,-1.25 z"
         id="path6" />
      <path
         style="fill:#feb16b"
         d="m 28.25,111.2545 c 5.3625,-0.17981 14.1375,-0.17981 19.5,0 5.3625,0.17981 0.975,0.32692 -9.75,0.32692 -10.725,0 -15.1125,-0.14711 -9.75,-0.32692 z m 64,0 c 5.3625,-0.17981 14.1375,-0.17981 19.5,0 5.3625,0.17981 0.975,0.32692 -9.75,0.32692 -10.725,0 -15.1125,-0.14711 -9.75,-0.32692 z M 122.27236,106 c 0,-2.475 0.19502,-3.4875 0.43337,-2.25 0.23836,1.2375 0.23836,3.2625 0,4.5 -0.23835,1.2375 -0.43337,0.225 -0.43337,-2.25 z m -66.999996,-1 c 0,-2.475 0.195016,-3.4875 0.433369,-2.25 0.238353,1.2375 0.238353,3.2625 0,4.5 -0.238353,1.2375 -0.433369,0.225 -0.433369,-2.25 z m 29,0 c 0,-2.475 0.195016,-3.4875 0.433369,-2.25 0.238353,1.2375 0.238353,3.2625 0,4.5 -0.238353,1.2375 -0.433369,0.225 -0.433369,-2.25 z M 51.872445,94.25 C 50.628574,92.663944 50.663944,92.628574 52.25,93.872445 c 0.9625,0.754844 1.75,1.542344 1.75,1.75 0,0.823034 -0.821186,0.293303 -2.127555,-1.372445 z M 86,95.622445 c 0,-0.207656 0.7875,-0.995156 1.75,-1.75 C 89.336056,92.628574 89.371426,92.663944 88.127555,94.25 86.821186,95.915748 86,96.445479 86,95.622445 Z M 286.40479,67.5 c 0.001,-8.8 0.15425,-12.266133 0.33996,-7.702518 0.18572,4.563614 0.18468,11.763614 -0.002,16 C 286.55547,80.033867 286.40352,76.3 286.40479,67.5 Z m 51.94462,7.5 c 0,-4.675 0.17226,-6.5875 0.3828,-4.25 0.21053,2.3375 0.21053,6.1625 0,8.5 -0.21054,2.3375 -0.3828,0.425 -0.3828,-4.25 z m 31,0 c 0,-4.675 0.17226,-6.5875 0.3828,-4.25 0.21053,2.3375 0.21053,6.1625 0,8.5 -0.21054,2.3375 -0.3828,0.425 -0.3828,-4.25 z M 228.38953,72.572726 c -0.30123,-0.785001 -0.34839,-2.472501 -0.10479,-3.75 0.33968,-1.781417 0.47463,-1.57082 0.57908,0.90366 L 229,72.952772 l 17.25,0.298835 17.25,0.298835 -17.28138,0.224779 c -14.19653,0.184654 -17.37916,-0.03 -17.82909,-1.202495 z m 176,0 c -0.30123,-0.785001 -0.34839,-2.472501 -0.10479,-3.75 0.33968,-1.781417 0.47463,-1.57082 0.57908,0.90366 L 405,72.952772 l 17.25,0.298835 17.25,0.298835 -17.28138,0.224779 c -14.19653,0.184654 -17.37916,-0.03 -17.82909,-1.202495 z M 459.22026,57.29569 459,42.09138 l -6.75,-0.34983 -6.75,-0.349829 6.78138,-0.195861 c 4.77895,-0.138026 6.92824,0.186824 7.27871,1.100125 0.27352,0.712792 0.35851,7.800292 0.18887,15.75 L 459.44052,72.5 Z m -287.92867,7.961812 c 3.73537,-0.192928 9.58537,-0.191497 13,0.0032 3.41462,0.194677 0.35841,0.352527 -6.79159,0.350778 -7.15,-0.0017 -9.94379,-0.161031 -6.20841,-0.353958 z M 261.28601,61.5 c 0.008,-2.75 0.20172,-3.756313 0.43157,-2.23625 0.22986,1.520062 0.22371,3.770062 -0.0136,5 C 261.46657,65.493687 261.27851,64.25 261.28601,61.5 Z m 176,0 c 0.008,-2.75 0.20172,-3.756313 0.43157,-2.23625 0.22986,1.520062 0.22371,3.770062 -0.0136,5 C 437.46657,65.493687 437.27851,64.25 437.28601,61.5 Z m -414.091061,-3 c 0.02038,-1.65 0.244498,-2.203936 0.498042,-1.230968 0.253543,0.972967 0.236869,2.322967 -0.03705,3 C 23.382014,60.946064 23.174569,60.15 23.194949,58.5 Z m 93.000001,0 c 0.0204,-1.65 0.2445,-2.203936 0.49804,-1.230968 0.25354,0.972967 0.23687,2.322967 -0.037,3 C 116.38201,60.946064 116.17457,60.15 116.19495,58.5 Z M 228.4035,53 228.5,50.5 l 16.75096,-0.0374 16.75097,-0.0374 -16.43685,0.311289 c -16.09015,0.304723 -16.44551,0.358244 -16.84746,2.5374 C 228.36843,55.166985 228.32144,55.126012 228.4035,53 Z M 338.19268,49.29569 338,42.09138 l -6.75,-0.34983 -6.75,-0.349829 6.78138,-0.195861 c 7.92078,-0.228768 7.97207,-0.167538 7.46277,8.909467 L 338.38536,56.5 Z M 369.4344,48.5 l 0.0656,-7 6.5,-0.06838 6.5,-0.06839 -6.20709,0.363097 -6.2071,0.363098 -0.3585,6.705288 L 369.3688,55.5 Z m 34.9691,4.5 0.0965,-2.5 16.75096,-0.0374 16.75097,-0.0374 -16.43685,0.311289 c -16.09015,0.304723 -16.44551,0.358244 -16.84746,2.5374 C 404.36843,55.166985 404.32144,55.126012 404.4035,53 Z M 161.19458,41.254349 c 5.88201,-0.176488 15.78201,-0.177107 22,-0.0014 6.21798,0.175733 1.40542,0.320132 -10.69458,0.320888 -12.1,7.56e-4 -17.18744,-0.143025 -11.30542,-0.319513 z m 65.61277,-0.0018 c 6.76904,-0.173259 17.56904,-0.172724 24,0.0012 6.43096,0.173914 0.89265,0.315672 -12.30735,0.315018 -13.2,-6.54e-4 -18.46169,-0.142947 -11.69265,-0.316207 z m 53.50244,-4.94e-4 c 7.59538,-0.170094 19.74538,-0.169656 27,9.75e-4 7.25461,0.170631 1.04021,0.309799 -13.80979,0.309263 -14.85,-5.36e-4 -20.7856,-0.140143 -13.19021,-0.310238 z m 122.49756,4.94e-4 c 6.76904,-0.173259 17.56904,-0.172724 24,0.0012 C 433.23831,41.427642 427.7,41.5694 414.5,41.568746 401.3,41.568092 396.03831,41.425799 402.80735,41.252539 Z M 68.75,20.337719 c 0.6875,-0.277412 1.8125,-0.277412 2.5,0 0.6875,0.277413 0.125,0.504386 -1.25,0.504386 -1.375,0 -1.9375,-0.226973 -1.25,-0.504386 z"
         id="path5" />
      <path
         style="fill:#feae50"
         d="m 69.312328,86.277731 c 2.46955,-0.371096 2.652376,-0.627072 1.5,-2.100168 -1.17519,-1.502258 -1.130604,-1.535098 0.426662,-0.314256 2.277665,1.78561 1.325219,3.17468 -2.048007,2.986861 L 66.5,86.700336 Z M 52.924314,80.25 50.5,77.5 l 2.75,2.424314 c 1.5125,1.333373 2.75,2.570873 2.75,2.75 0,0.784274 -0.809799,0.145975 -3.075686,-2.424314 z M 153.41508,62 c 0,-10.175 0.1485,-14.3375 0.32999,-9.25 0.18149,5.0875 0.18149,13.4125 0,18.5 -0.18149,5.0875 -0.32999,0.925 -0.32999,-9.25 z m 106.74281,16 c 0,-1.375 0.22698,-1.9375 0.50439,-1.25 0.27741,0.6875 0.27741,1.8125 0,2.5 -0.27741,0.6875 -0.50439,0.125 -0.50439,-1.25 z m 176,0 c 0,-1.375 0.22698,-1.9375 0.50439,-1.25 0.27741,0.6875 0.27741,1.8125 0,2.5 -0.27741,0.6875 -0.50439,0.125 -0.50439,-1.25 z M 89,76.5 C 90.291745,75.125 91.573628,74 91.848628,74 92.123628,74 91.291745,75.125 90,76.5 88.708255,77.875 87.426372,79 87.151372,79 86.876372,79 87.708255,77.875 89,76.5 Z M 47.872445,75.25 C 46.628574,73.663944 46.663944,73.628574 48.25,74.872445 c 0.9625,0.754844 1.75,1.542344 1.75,1.75 0,0.823034 -0.821186,0.293303 -2.127555,-1.372445 z M 171.25,76.25845 c 3.7125,-0.192407 9.7875,-0.192407 13.5,0 3.7125,0.192406 0.675,0.349829 -6.75,0.349829 -7.425,0 -10.4625,-0.157423 -6.75,-0.349829 z m 296.04571,-1.002581 c 4.28763,-0.187904 11.03763,-0.186758 15,0.0025 3.96236,0.189304 0.45429,0.343044 -7.79571,0.341643 -8.25,-0.0014 -11.49193,-0.156287 -7.20429,-0.34419 z M 43.299664,60 c 0,-3.025 0.187466,-4.2625 0.41659,-2.75 0.229125,1.5125 0.229125,3.9875 0,5.5 -0.229124,1.5125 -0.41659,0.275 -0.41659,-2.75 z M 53.924314,62.25 51.5,59.5 l 2.75,2.424314 c 1.5125,1.333373 2.75,2.570873 2.75,2.75 0,0.784274 -0.809799,0.145975 -3.075686,-2.424314 z M 170.75,59.259603 c 3.4375,-0.195271 9.0625,-0.195271 12.5,0 3.4375,0.195271 0.625,0.355038 -6.25,0.355038 -6.875,0 -9.6875,-0.159767 -6.25,-0.355038 z m 65.5,-0.0029 c 4.2625,-0.187451 11.2375,-0.187451 15.5,0 4.2625,0.187451 0.775,0.34082 -7.75,0.34082 -8.525,0 -12.0125,-0.153369 -7.75,-0.34082 z m 176,0 c 4.2625,-0.187451 11.2375,-0.187451 15.5,0 4.2625,0.187451 0.775,0.34082 -7.75,0.34082 -8.525,0 -12.0125,-0.153369 -7.75,-0.34082 z M 203.15789,51 c 0,-1.375 0.22698,-1.9375 0.50439,-1.25 0.27741,0.6875 0.27741,1.8125 0,2.5 -0.27741,0.6875 -0.50439,0.125 -0.50439,-1.25 z m 70.12228,-2.736272 c 2.6291,-0.206676 6.6791,-0.204183 9,0.0055 2.32091,0.209724 0.16983,0.378823 -4.78017,0.375776 -4.95,-0.003 -6.84892,-0.17464 -4.21983,-0.381317 z m 35.40544,-0.0067 c 7.5215,-0.308608 8.22036,-0.515207 8.61382,-2.546455 0.35784,-1.847315 0.45059,-1.758671 0.56439,0.539402 L 318,49 309.25,48.796455 300.5,48.592909 Z M 51,41.5 C 52.865783,39.575 54.617334,38 54.892334,38 55.167334,38 53.865783,39.575 52,41.5 50.134217,43.425 48.382666,45 48.107666,45 47.832666,45 49.134217,43.425 51,41.5 Z M 88.404988,42.75 86.5,40.5 88.75,42.404988 C 90.864445,44.195206 91.455241,45 90.654988,45 c -0.189757,0 -1.202257,-1.0125 -2.25,-2.25 z M 47,32.622445 c 0,-0.207656 0.7875,-0.995156 1.75,-1.75 C 50.336056,29.628574 50.371426,29.663944 49.127555,31.25 47.821186,32.915748 47,33.445479 47,32.622445 Z M 90.872445,31.25 C 89.628574,29.663944 89.663944,29.628574 91.25,30.872445 c 0.9625,0.754844 1.75,1.542344 1.75,1.75 0,0.823034 -0.821186,0.293303 -2.127555,-1.372445 z"
         id="path4" />
      <path
         style="fill:#269bda"
         d="M 29.435811,61.173854 C 27.852354,60.033646 27.880825,57.259709 29.482293,56.645169 31.875719,55.726725 33.75,56.9171 33.75,59.355633 c 0,2.224946 -2.365093,3.221718 -4.314189,1.818221 z m 77.999999,0 c -1.58346,-1.140208 -1.55498,-3.914145 0.0465,-4.528685 2.39343,-0.918444 4.26771,0.271931 4.26771,2.710464 0,2.224946 -2.36509,3.221718 -4.31419,1.818221 z"
         id="path3" />
      <path
         style="fill:#fe8d01"
         d="m 18,105.44588 v -5.554111 l 13.501684,0.304111 c 7.425925,0.16727 13.500925,0.19995 13.5,0.0726 C 45.000758,100.1412 42.1875,97.210253 38.75,93.755295 28.436913,83.38983 24,72.60285 24,57.895236 24,32.009519 43.477298,13 70,13 c 26.522702,0 46,19.009519 46,44.895236 0,14.707614 -4.43691,25.494594 -14.75,35.860059 -3.4375,3.454958 -6.250758,6.385905 -6.251684,6.513225 -9.25e-4,0.12731 6.074074,0.0946 13.500004,-0.0726 L 122,99.891769 V 105.44588 111 H 102 82 v -5.54366 c 0,-5.38826 0.151074,-5.691154 5.389455,-10.80545 6.091218,-5.946932 11.700359,-16.1507 13.621225,-24.778809 1.97738,-8.881929 0.92767,-21.433884 -2.353324,-28.139985 -3.43193,-7.014611 -9.505665,-13.311284 -15.501025,-16.069993 -6.579485,-3.027488 -19.733177,-3.027488 -26.312662,0 -5.99536,2.758709 -12.069095,9.055382 -15.501025,16.069993 -3.280989,6.706101 -4.330699,19.258056 -2.353325,28.139985 1.920867,8.628109 7.530008,18.831877 13.621226,24.778809 C 57.848926,99.765186 58,100.06808 58,105.45634 V 111 H 38 18 Z M 56,105.0206 C 56,101.58397 55.384676,100.474 51.488721,96.882838 39.946768,86.243838 33.170317,66.449896 35.920376,51.407866 39.33738,32.717837 52.470149,21 70,21 c 17.529851,0 30.66262,11.717837 34.07962,30.407866 2.75006,15.04203 -4.02639,34.835972 -15.568341,45.474972 C 84.615324,100.474 84,101.58397 84,105.0206 V 109 h 18 18 v -3 -3 H 107.12244 C 89.65914,103 89.316781,102.53074 99.218675,92.166542 110.50355,80.354795 114.74464,69.526205 113.73209,55.110094 112.52941,37.986923 102.19917,23.959696 86.452949,18.06828 c -7.867293,-2.943531 -25.038605,-2.943531 -32.905898,0 C 37.800832,23.959696 27.470594,37.986923 26.267906,55.110094 25.255356,69.526205 29.49645,80.354795 40.781325,92.166542 50.63517,102.48045 50.280097,103 33.377555,103 H 21 v 3 3 H 38.5 56 Z M 59.5,84.088265 C 54.550961,81.777298 48.477001,75.855323 45.924956,70.852902 43.52573,66.15003 43.332306,55.538528 45.548827,50.217881 47.665702,45.136427 53.611684,39.171695 58.832905,36.891911 64.363486,34.477049 64.996296,34.513691 65.017138,37.25 65.026563,38.4875 65.918851,42.875 67,47 69.742037,57.461932 70.000112,56.938633 62.75,55.61773 49.300432,53.167344 48.573349,55.997805 59.369706,68.776874 63.423045,73.574593 67.92869,79.4125 69.382251,81.75 L 72.025089,86 67.762545,85.978038 C 65.418145,85.965959 61.7,85.115561 59.5,84.088265 Z M 76.444799,76.448312 C 72.255967,67.256525 72.204204,66.582663 75.75,67.403318 c 1.5125,0.350059 4.4375,0.91177 6.5,1.248246 3.483389,0.568279 3.75,0.43677 3.75,-1.849742 0,-1.353834 -3.389471,-9.123614 -7.532158,-17.266178 -4.142686,-8.142564 -7.30734,-15.029479 -7.032563,-15.304256 1.225186,-1.225186 12.842316,4.289077 16.102058,7.643109 7.58265,7.801984 10.193581,20.060209 5.987734,28.112195 -2.600893,4.97934 -8.361127,11.61758 -11.205589,12.913604 -2.339629,1.066006 -2.557837,0.826356 -5.874683,-6.451984 z M 151,62.604001 V 42 l 23.75,0.0037 c 21.84613,0.0034 24.00838,0.161278 26.97316,1.968981 5.50938,3.359203 5.65169,10.612443 0.27242,13.883777 l -2.95075,1.794457 3.53287,1.684707 c 5.71195,2.723842 7.79181,10.728618 4.09503,15.760665 -0.645,0.877978 -2.74773,2.437815 -4.67273,3.466303 -3.06752,1.638915 -6.43467,1.917885 -27.25,2.257676 L 151,83.208001 Z m 51.10212,15.113698 c 5.87157,-3.943838 5.30158,-11.450777 -1.11812,-14.725861 -4.73091,-2.41353 -5.05347,-4.387433 -1.05487,-6.45519 5.44457,-2.815496 5.18115,-8.756972 -0.49337,-11.127937 C 196.89018,44.345099 190.7894,44 174.53212,44 H 153 v 18 18 h 22.85212 c 22.13512,0 22.95872,-0.07161 26.25,-2.282301 z m -39.69654,-5.369291 c -0.37677,-2.008375 -0.27452,-4.820875 0.22722,-6.25 0.91139,-2.595931 0.92463,-2.598683 13.88973,-2.886899 7.13761,-0.158669 13.98428,-0.03903 15.21482,0.265878 2.96133,0.733753 5.606,4.865438 4.78007,7.46773 C 195.02522,75.646625 193.72888,76 177.97388,76 H 163.09063 Z M 192.8,72.8 c 1.83712,-1.83712 1.42786,-5.607686 -0.73426,-6.764816 C 191.0019,65.465833 184.4769,65 177.56574,65 H 165 v 4.5 4.5 h 13.3 c 9.01111,0 13.68697,-0.386967 14.5,-1.2 z M 162.45033,55.586939 c -0.86328,-4.601698 0.1985,-7.460698 3.0352,-8.172663 1.29372,-0.324704 7.51786,-0.43825 13.83141,-0.252324 9.58178,0.282172 11.8266,0.652923 13.58112,2.243036 2.50195,2.267517 2.65657,4.35816 0.54524,7.372506 C 191.95721,58.899181 191.23346,59 177.48861,59 h -14.39798 z m 29.58388,-0.650861 C 194.24782,50.799912 191.95367,50 177.87756,50 H 165 v 3.5 3.5 h 12.96482 c 12.0752,0 13.04061,-0.141621 14.06939,-2.063922 z M 215,62.5 V 42 h 23.5 23.5 v 3.975821 3.975821 L 245.25,50.225821 228.5,50.5 228.18664,53.75 227.87328,57 H 244.43664 261 v 4.5 4.5 h -16.56037 -16.56036 l 0.31036,3.75 0.31037,3.75 17.25,0.273614 17.25,0.273614 V 78.523614 83 H 239 215 Z M 261,78 c 0,-1.918588 -0.66667,-2 -16.37756,-2 -18.55955,0 -18.93924,-0.147813 -18.43355,-7.176095 L 226.5,64.5 242.75,64.225229 259,63.950457 V 61.5 59.049543 L 242.75,58.774771 226.5,58.5 226.18547,54.680212 C 225.65502,48.238063 226.29424,48 244.12244,48 259.33333,48 260,47.916024 260,46 c 0,-1.937984 -0.66667,-2 -21.5,-2 H 217 v 18 18 h 22 c 21.33333,0 22,-0.06061 22,-2 z M 287,67 V 51 H 277 267 V 46.5 42 H 293.5 320 V 46.5 51 H 310 300 V 67 83 H 293.5 287 Z M 298.22395,64.75 298.5,49.5 l 9.75,-0.286212 c 9.61767,-0.282328 9.75,-0.31965 9.75,-2.75 V 44 H 293.5 269 v 2.463788 c 0,2.43035 0.13233,2.467672 9.75,2.75 L 288.5,49.5 288.77605,64.75 289.05209,80 H 293.5 297.94791 Z M 325,62.5 V 42 h 6.5 6.5 v 7.5 7.5 h 16 16 V 49.5 42 h 6.5 6.5 V 62.5 83 H 376.5 370 V 74.5 66 H 354 338 V 74.5 83 H 331.5 325 Z M 336.20794,72.25 336.5,64.5 h 17.5 17.5 l 0.29206,7.75 0.29207,7.75 H 376.54206 381 V 62 44 h -4.45619 -4.45619 L 371.79381,51.25 371.5,58.5 H 354 336.5 L 336.20619,51.25 335.91238,44 H 331.45619 327 v 18 18 h 4.45794 4.45793 z M 391,62.5 V 42 h 23.5 23.5 v 3.975821 3.975821 L 421.25,50.225821 404.5,50.5 404.18664,53.75 403.87328,57 H 420.43664 437 v 4.5 4.5 h -16.56037 -16.56036 l 0.31036,3.75 0.31037,3.75 17.25,0.273614 17.25,0.273614 V 78.523614 83 H 415 391 Z M 437,78 c 0,-1.918588 -0.66667,-2 -16.37756,-2 -18.55955,0 -18.93924,-0.147813 -18.43355,-7.176095 L 402.5,64.5 418.75,64.225229 435,63.950457 V 61.5 59.049543 L 418.75,58.774771 402.5,58.5 402.18547,54.680212 C 401.65502,48.238063 402.29424,48 420.12244,48 435.33333,48 436,47.916024 436,46 c 0,-1.937984 -0.66667,-2 -21.5,-2 H 393 v 18 18 h 22 c 21.33333,0 22,-0.06061 22,-2 z m 9,-15.5 V 42 h 6.5 6.5 V 57.5 73 h 16 16 v 5 5 H 468.5 446 Z m 43,15.025393 V 75.050786 L 473.25,74.775393 457.5,74.5 457.22395,59.25 456.94791,44 H 452.47395 448 v 18 18 h 20.5 20.5 z"
         id="path2" />
    </g>
  </g>
</svg>
