<?xml version="1.0" encoding="UTF-8" standalone="no"?>
<!-- Created with Inkscape (http://www.inkscape.org/) -->

<svg
   version="1.1"
   id="svg1"
   width="499"
   height="125"
   viewBox="0 0 499 125"
   xmlns="http://www.w3.org/2000/svg"
   xmlns:svg="http://www.w3.org/2000/svg">
  <defs
     id="defs1" />
  <g
     id="g1">
    <g
       id="g742"
       transform="translate(-16.003466,350.51219)">
      <path
         style="fill:#269bda"
         d="m 41.236487,-289.75576 c -1.583457,-1.14021 -1.554986,-3.91415 0.04648,-4.52869 2.393426,-0.91844 4.267707,0.27193 4.267707,2.71047 0,2.22494 -2.365093,3.22171 -4.314189,1.81822 z m 78.000003,0 c -1.58346,-1.14021 -1.55498,-3.91415 0.0465,-4.52869 2.39343,-0.91844 4.26771,0.27193 4.26771,2.71047 0,2.22494 -2.36509,3.22171 -4.31419,1.81822 z"
         id="path743" />
      <path
         id="path742"
         style="fill:#fe8d01"
         d="m 81.52495,-335.47508 c -26.522706,0 -45.999999,19.01077 -46,44.89648 0,14.70762 4.436914,25.49392 14.75,35.85938 3.4375,3.45496 6.249075,6.38639 6.25,6.51367 9.26e-4,0.12735 -6.074074,0.095 -13.5,-0.0723 l -13.5,-0.30469 v 5.55469 5.55273 h 20 20 v -5.54297 c 0,-5.38826 -0.152243,-5.6904 -5.390625,-10.80469 -6.091217,-5.94692 -11.700226,-16.15118 -13.621093,-24.77929 -1.977374,-8.88193 -0.927474,-21.43452 2.353515,-28.14063 3.43193,-7.01461 9.506594,-13.3116 15.501953,-16.07031 6.579487,-3.02749 19.733021,-3.02749 26.3125,0 5.99536,2.75871 12.06807,9.0557 15.5,16.07031 3.28099,6.70611 4.3309,19.2587 2.35352,28.14063 -1.92086,8.62811 -7.52989,18.83237 -13.621098,24.77929 -5.23838,5.1143 -5.388671,5.41643 -5.388672,10.80469 v 5.54297 h 20 20 v -5.55273 -5.55469 l -13.50195,0.30469 c -7.42593,0.1672 -13.50093,0.19918 -13.5,0.0723 9.2e-4,-0.12732 2.81445,-3.05871 6.25195,-6.51367 10.31309,-10.36546 14.75,-21.15176 14.75,-35.85938 0,-25.88571 -19.4773,-44.89648 -46,-44.89648 z m 0,2.86133 c 6.25965,0 12.517522,0.73526 16.451172,2.20703 15.746218,5.89141 26.076618,19.9198 27.279298,37.04297 1.01255,14.41611 -3.22685,25.24489 -14.51172,37.05664 -9.9019,10.3642 -9.56096,10.83203 7.90234,10.83203 h 12.87891 v 3 3 h -18 -18 v -3.97852 c 0,-3.43663 0.61378,-4.54751 4.50977,-8.13867 11.54195,-10.639 18.31842,-30.43258 15.56836,-45.47461 -3.417,-18.69002 -16.54828,-30.4082 -34.07813,-30.4082 -17.529854,0 -30.663074,11.71818 -34.080078,30.4082 -2.750059,15.04203 4.026407,34.83561 15.56836,45.47461 3.895955,3.59116 4.511718,4.70204 4.511718,8.13867 v 3.97852 h -17.5 -17.5 v -3 -3 h 12.376954 c 16.902541,0 17.258141,-0.51812 7.404296,-10.83203 -11.284875,-11.81175 -15.526225,-22.64053 -14.513671,-37.05664 1.202687,-17.12317 11.533079,-31.15156 27.279296,-37.04297 3.933647,-1.47177 10.193468,-2.20703 16.453125,-2.20703 z m 2.34375,18.20898 c -0.44128,-0.0401 -0.757006,0.009 -0.910156,0.16211 -0.27478,0.27477 2.890523,7.16213 7.033203,15.30469 4.14269,8.14257 7.533205,15.91179 7.533203,17.26562 0,2.28651 -0.26661,2.41788 -3.75,1.84961 -2.0625,-0.33649 -4.987499,-0.89798 -6.5,-1.24804 -3.545789,-0.82066 -3.49547,-0.14687 0.69336,9.04492 3.31685,7.27834 3.53537,7.51718 5.875,6.45117 2.84447,-1.29602 8.60419,-7.93277 11.20508,-12.91211 4.20585,-8.05199 1.59632,-20.3113 -5.98633,-28.11328 -2.85228,-2.93479 -12.104419,-7.52415 -15.19336,-7.80469 z m -8.353515,1.07031 c -0.85213,-0.0493 -2.392912,0.54453 -5.158203,1.75196 -5.221221,2.27978 -11.166336,8.24472 -13.283203,13.32617 -2.216521,5.32065 -2.024226,15.9319 0.375,20.63477 2.552045,5.00241 8.627132,10.92534 13.576171,13.23632 v -0.002 c 2.200001,1.0273 5.917307,1.87853 8.261719,1.89063 l 4.261719,0.0215 -2.642578,-4.25 c -1.45356,-2.3375 -5.95838,-8.17495 -10.011719,-12.97266 -10.796357,-12.77909 -10.068708,-15.60859 3.380859,-13.1582 7.250113,1.3209 6.992041,1.84279 4.25,-8.61914 -1.081153,-4.125 -1.974975,-8.5125 -1.984375,-9.75 -0.01042,-1.36816 -0.173258,-2.06004 -1.02539,-2.10938 z m 99.244145,22.9004 c -0.0444,-0.0253 -0.0343,0.0977 -0.0508,0.14648 0.0958,0.0862 0.12465,0.10077 0.19336,0.16406 0.0169,-0.0265 0.0357,-0.0517 0.0527,-0.0781 -0.0673,-0.0722 -0.1264,-0.19359 -0.19531,-0.23242 z m 251.4707,16.0664 c -0.0943,0.0279 -0.18679,0.0623 -0.28125,0.0899 0.80012,0.007 1.60028,0.007 2.40039,0.0137 -0.706,-0.0429 -1.41293,-0.0644 -2.11914,-0.10352 z m -263.70508,8.87891 v 0.22265 l 0.4043,-0.006 c -0.13123,-0.0804 -0.27588,-0.12958 -0.4043,-0.21679 z" />
    </g>
    <text
       xml:space="preserve"
       style="font-size:73.1293px;text-align:start;writing-mode:lr-tb;direction:ltr;text-anchor:start;fill:#fe8d01;fill-opacity:1;stroke-width:6.0941"
       x="99.051384"
       y="109.73562"
       id="text749"
       transform="scale(1.2752723,0.78414625)"><tspan
         id="tspan749"
         x="99.051384"
         y="109.73562"
         style="font-style:normal;font-variant:normal;font-weight:normal;font-stretch:normal;font-family:'Franklin Gothic Book';-inkscape-font-specification:'Franklin Gothic Book, ';writing-mode:lr-tb;direction:ltr;fill:#fe8d01;fill-opacity:1;stroke-width:6.0941">BETEHEL</tspan></text>
  </g>
</svg>
